<svg xmlns="http://www.w3.org/2000/svg" version="1.1" xmlns:xlink="http://www.w3.org/1999/xlink" xmlns:svgjs="http://svgjs.dev/svgjs" width="1500" height="939" viewBox="0 0 1500 939"><g transform="matrix(1,0,0,1,-0.9090909090909918,-1.5145161290323017)"><svg viewBox="0 0 396 248" data-background-color="#fafafa" preserveAspectRatio="xMidYMid meet" height="939" width="1500" xmlns="http://www.w3.org/2000/svg" xmlns:xlink="http://www.w3.org/1999/xlink"><g id="tight-bounds" transform="matrix(1,0,0,1,0.2400000000000091,0.4000000000000057)"><svg viewBox="0 0 395.52 247.2" height="247.2" width="395.52"><g><svg></svg></g><g><svg viewBox="0 0 395.52 247.2" height="247.2" width="395.52"><g transform="matrix(1,0,0,1,75.54432,89.51745038238701)"><svg viewBox="0 0 244.43135999999998 68.16509923522597" height="68.16509923522597" width="244.43135999999998"><g><svg viewBox="0 0 244.43135999999998 68.16509923522597" height="68.16509923522597" width="244.43135999999998"><g><svg viewBox="0 0 244.43135999999998 68.16509923522597" height="68.16509923522597" width="244.43135999999998"><g><svg viewBox="0 0 244.43135999999998 68.16509923522597" height="68.16509923522597" width="244.43135999999998"><g id="textblocktransform"><svg viewBox="0 0 244.43135999999998 68.16509923522597" height="68.16509923522597" width="244.43135999999998" id="textblock"><g><svg viewBox="0 0 244.43135999999998 68.16509923522597" height="68.16509923522597" width="244.43135999999998"><g transform="matrix(1,0,0,1,0,0)"><svg width="244.43135999999998" viewBox="3.9 -35.5 129.44 36.1" height="68.16509923522597" data-palette-color="#130912"><path d="M32.35 0L32.35-17.15Q32.35-20.15 30.78-21.55 29.2-22.95 26.7-22.95L26.7-22.95Q24.75-22.95 22.35-22.1L22.35-22.1 20.5-21.2Q21.35-19.5 21.35-17.3L21.35-17.3 21.35 0 18.6 0 18.6-17.15Q18.6-20.2 17.03-21.58 15.45-22.95 12.9-22.95L12.9-22.95Q11.35-22.95 9.7-22.48 8.05-22 6.7-21.25L6.7-21.25 6.7 0 3.9 0 3.9-25.05 6.7-25.05 6.45-23.45Q9.75-25.4 13.2-25.4L13.2-25.4Q15-25.4 16.57-24.8 18.15-24.2 19.25-23.05L19.25-23.05Q19.95-23.45 21.35-24.15L21.35-24.15Q24.3-25.5 27.05-25.5L27.05-25.5Q30.6-25.5 32.85-23.33 35.1-21.15 35.1-17.3L35.1-17.3 35.1 0 32.35 0ZM55.25-1.75Q53.45-0.6 51.15 0 48.85 0.6 46.55 0.6L46.55 0.6Q42.85 0.6 40.67-1.23 38.5-3.05 38.5-6.7L38.5-6.7 38.5-16.95Q38.5-21 41.02-23.25 43.55-25.5 47.7-25.5L47.7-25.5Q51.85-25.5 54.17-23.28 56.5-21.05 56.5-17.1L56.5-17.1 56.5-10.6 41.3-9.75 41.3-6.7Q41.3-4.3 42.85-3.1 44.4-1.9 46.9-1.9L46.9-1.9Q50.4-1.9 54.15-3.9L54.15-3.9 55.25-1.75ZM53.7-17.45Q53.7-20.55 51.75-21.83 49.8-23.1 47.65-23.1L47.65-23.1Q44.9-23.1 43.1-21.6 41.3-20.1 41.3-16.9L41.3-16.9 41.3-12.5 53.7-13.1 53.7-17.45ZM61.5 0L61.5-25.05 64.3-25.05 64.15-23.3Q66.5-25.5 70.3-25.5L70.3-25.5Q71.65-25.5 74-25.05L74-25.05 73.25-22.5Q71.65-23 69.9-23L69.9-23Q67.6-23 65.95-22.15 64.3-21.3 64.3-19.6L64.3-19.6 64.3 0 61.5 0ZM94.59 0L88.44-9.85 82.29 0 78.99 0 86.79-12.45 78.99-25.05 82.14-25.05 88.44-15.05 94.74-25.05 97.89-25.05 90.04-12.45 97.89 0 94.59 0ZM105.14-32.15Q104.49-32.15 103.97-32.68 103.44-33.2 103.44-33.85L103.44-33.85Q103.44-34.5 103.94-35 104.44-35.5 105.14-35.5L105.14-35.5Q105.84-35.5 106.32-35.02 106.79-34.55 106.79-33.85L106.79-33.85Q106.79-33.15 106.29-32.65 105.79-32.15 105.14-32.15L105.14-32.15ZM103.69 0L103.69-25.05 106.49-25.05 106.49 0 103.69 0ZM133.34-9.2Q133.34-5 131.04-2.25 128.74 0.5 124.09 0.5L124.09 0.5Q119.44 0.5 117.06-2.27 114.69-5.05 114.69-9.2L114.69-9.2 114.69-15.8Q114.69-20.55 117.11-23.08 119.54-25.6 124.09-25.6L124.09-25.6Q128.44-25.6 130.89-22.98 133.34-20.35 133.34-15.8L133.34-15.8 133.34-9.2ZM130.54-15.8Q130.54-19.55 128.81-21.3 127.09-23.05 124.09-23.05L124.09-23.05Q120.99-23.05 119.24-21.3 117.49-19.55 117.49-15.8L117.49-15.8 117.49-8.7Q117.49-5.7 119.26-3.85 121.04-2 124.09-2L124.09-2Q127.19-2 128.86-3.83 130.54-5.65 130.54-8.7L130.54-8.7 130.54-15.8Z" opacity="1" transform="matrix(1,0,0,1,0,0)" fill="#130912" class="wordmark-text-0" data-fill-palette-color="primary" id="text-0"></path></svg></g></svg></g></svg></g></svg></g></svg></g></svg></g></svg></g><g><path d="M0 123.6c0-68.262 55.338-123.6 123.6-123.6 53.469 0 99.007 33.951 116.234 81.471h-3.275c-17.085-45.789-61.214-78.398-112.959-78.397-66.565 0-120.526 53.962-120.526 120.526 0 66.565 53.962 120.526 120.526 120.526 51.745 0 95.874-32.609 112.959-78.397h3.276c-17.227 47.52-62.766 81.471-116.235 81.471-68.262 0-123.6-55.338-123.6-123.6z" fill="#facc15" stroke="transparent" data-fill-palette-color="tertiary"></path></g></svg></g><defs></defs></svg><rect width="395.52" height="247.2" fill="none" stroke="none" visibility="hidden"></rect></g></svg></g></svg>